<svg width="334" height="65" viewBox="0 0 334 65" fill="none" xmlns="http://www.w3.org/2000/svg">
<path d="M7.68 52.032C5.07733 51.8187 3.18933 51.0293 2.016 49.664C0.864001 48.2773 0.245334 46.144 0.160001 43.264C0.138668 42.0053 0.117334 40.8427 0.0960009 39.776C0.0960009 38.7093 0.106668 37.6427 0.128001 36.576C0.149334 35.488 0.192001 34.3147 0.256001 33.056H4.768C4.68267 34.912 4.62933 36.7573 4.608 38.592C4.608 40.4267 4.66133 42.2187 4.768 43.968C4.81067 45.1627 5.056 46.08 5.504 46.72C5.97333 47.3387 6.69867 47.744 7.68 47.936V52.032ZM10.592 52V47.904C11.488 47.712 12.1387 47.296 12.544 46.656C12.9707 46.016 13.216 45.12 13.28 43.968C13.3653 42.8373 13.408 41.8027 13.408 40.864C13.4293 39.9253 13.4293 38.9653 13.408 37.984C13.3867 37.0027 13.344 35.8933 13.28 34.656C13.2373 33.0987 12.992 31.808 12.544 30.784C12.1173 29.76 11.2853 29.088 10.048 28.768L6.528 27.872C4.84267 27.4453 3.54133 26.816 2.624 25.984C1.70667 25.1307 1.056 24.0213 0.672001 22.656C0.309334 21.2907 0.096001 19.6053 0.032001 17.6C0.0106676 16.256 0.0106676 14.8053 0.032001 13.248C0.0533342 11.6907 0.0746675 10.1653 0.0960009 8.672C0.160001 5.81333 0.768001 3.712 1.92 2.368C3.072 1.00267 4.98133 0.213333 7.648 0V4.096C6.70934 4.288 6.016 4.704 5.568 5.344C5.14133 5.96267 4.896 6.848 4.832 8C4.74667 9.6 4.704 11.2 4.704 12.8C4.704 14.4 4.74667 16 4.832 17.6C4.896 19.4133 5.13067 20.7893 5.536 21.728C5.94133 22.6453 6.77333 23.264 8.032 23.584L11.328 24.352C13.0987 24.7573 14.4533 25.3973 15.392 26.272C16.352 27.1467 17.024 28.2773 17.408 29.664C17.792 31.0293 18.016 32.6933 18.08 34.656C18.1013 35.8507 18.112 36.896 18.112 37.792C18.112 38.688 18.1013 39.5627 18.08 40.416C18.08 41.248 18.0587 42.1973 18.016 43.264C17.9093 46.144 17.28 48.2773 16.128 49.664C14.9973 51.0293 13.152 51.808 10.592 52ZM13.216 18.272C13.28 16.544 13.312 14.8267 13.312 13.12C13.3333 11.392 13.312 9.68533 13.248 8C13.2053 6.86933 12.9707 5.99467 12.544 5.376C12.1173 4.736 11.456 4.32 10.56 4.128V0.0319977C13.0347 0.223999 14.8373 1.00267 15.968 2.368C17.12 3.73333 17.7387 5.856 17.824 8.736C17.8667 9.90933 17.8773 11.3387 17.856 13.024C17.856 14.688 17.8347 16.4373 17.792 18.272H13.216ZM23.9615 64.416V13.216H28.6975V64.416H23.9615ZM31.5775 48.032C31.8548 48.16 32.1535 48.256 32.4735 48.32C32.8148 48.384 33.1775 48.416 33.5615 48.416C34.7135 48.416 35.5775 48.1067 36.1535 47.488C36.7508 46.8693 37.0708 45.8773 37.1135 44.512C37.1775 42.208 37.2308 40.0107 37.2735 37.92C37.3162 35.808 37.3268 33.76 37.3055 31.776C37.3055 29.792 37.2842 27.8507 37.2415 25.952C37.1988 24.0533 37.1562 22.1653 37.1135 20.288C37.0708 18.9227 36.7935 17.9413 36.2815 17.344C35.7908 16.7253 34.9695 16.416 33.8175 16.416C32.9642 16.416 32.2175 16.5653 31.5775 16.864V13.984C32.0468 13.5787 32.5802 13.2693 33.1775 13.056C33.7962 12.8427 34.5428 12.736 35.4175 12.736C37.5082 12.736 39.0762 13.344 40.1215 14.56C41.1882 15.776 41.7642 17.8027 41.8495 20.64C41.8922 22.048 41.9242 23.7547 41.9455 25.76C41.9882 27.744 42.0095 29.8453 42.0095 32.064C42.0095 34.2827 41.9882 36.448 41.9455 38.56C41.9242 40.6507 41.8922 42.5173 41.8495 44.16C41.7642 46.976 41.1562 49.0027 40.0255 50.24C38.9162 51.4773 37.3055 52.096 35.1935 52.096C33.7428 52.096 32.5375 51.6693 31.5775 50.816V48.032ZM47.826 43.36C47.762 41.76 47.7087 40.032 47.666 38.176C47.6447 36.32 47.634 34.432 47.634 32.512C47.634 30.5707 47.6447 28.672 47.666 26.816C47.7087 24.9387 47.762 23.1573 47.826 21.472C47.954 18.592 48.562 16.48 49.65 15.136C50.738 13.792 52.5833 13.0133 55.186 12.8V16.64C54.2687 16.8107 53.6073 17.1947 53.202 17.792C52.7967 18.3893 52.5833 19.2853 52.562 20.48C52.498 22.6133 52.4447 24.6613 52.402 26.624C52.3593 28.5653 52.338 30.4853 52.338 32.384C52.338 34.2827 52.3593 36.2133 52.402 38.176C52.4447 40.1387 52.498 42.1973 52.562 44.352C52.5833 45.5467 52.7967 46.4427 53.202 47.04C53.6287 47.6373 54.29 48.0213 55.186 48.192V52.032C52.5833 51.8187 50.738 51.04 49.65 49.696C48.562 48.3307 47.954 46.2187 47.826 43.36ZM58.098 52.032V48.224C59.0153 48.032 59.6767 47.6373 60.082 47.04C60.4873 46.4427 60.7113 45.5467 60.754 44.352C60.7967 42.176 60.8393 40.1173 60.882 38.176C60.9247 36.2133 60.946 34.2933 60.946 32.416C60.946 30.5387 60.9247 28.6293 60.882 26.688C60.8393 24.7253 60.7967 22.656 60.754 20.48C60.7113 19.264 60.4873 18.3573 60.082 17.76C59.6767 17.1627 59.0153 16.7787 58.098 16.608V12.8C59.8687 12.928 61.2767 13.3227 62.322 13.984C63.3673 14.624 64.1353 15.5627 64.626 16.8C65.1167 18.016 65.4047 19.5733 65.49 21.472C65.5327 23.1147 65.5647 24.864 65.586 26.72C65.6287 28.5547 65.65 30.432 65.65 32.352C65.65 34.272 65.6287 36.1707 65.586 38.048C65.5647 39.904 65.5327 41.6747 65.49 43.36C65.4047 45.2587 65.1167 46.8267 64.626 48.064C64.1353 49.3013 63.3673 50.24 62.322 50.88C61.2767 51.52 59.8687 51.904 58.098 52.032ZM69.691 16.96V13.216H72.443V2.336H77.211V44.416C77.211 45.9307 77.435 46.9653 77.883 47.52C78.331 48.0747 79.3657 48.352 80.987 48.352C81.5843 48.352 82.075 48.3413 82.459 48.32C82.8643 48.2987 83.323 48.256 83.835 48.192V51.776C83.4083 51.8613 82.939 51.936 82.427 52C81.9363 52.064 81.4243 52.096 80.891 52.096C77.7123 52.096 75.5043 51.4667 74.267 50.208C73.051 48.928 72.443 46.8373 72.443 43.936V16.96H69.691ZM79.611 16.96V13.216H83.163V16.96H79.611ZM87.774 51.616V0.416H92.51V51.616H87.774ZM98.311 5.696V0.416H105.223V5.696H98.311ZM99.399 51.616V13.216H104.135V51.616H99.399ZM117.584 62.208C115.237 62.0587 113.413 61.5573 112.112 60.704C110.832 59.8507 110.107 58.6027 109.936 56.96C109.915 56.704 109.893 56.448 109.872 56.192C109.851 55.936 109.861 55.6907 109.904 55.456C109.968 54.2613 110.363 53.312 111.088 52.608C111.835 51.904 112.763 51.456 113.872 51.264V50.4C111.803 49.824 110.715 48.7147 110.608 47.072C110.565 46.7947 110.544 46.592 110.544 46.464C110.544 46.3147 110.565 46.1227 110.608 45.888C110.672 45.0133 111.003 44.2667 111.6 43.648C112.219 43.0293 112.965 42.656 113.84 42.528V41.632C112.667 41.056 111.792 40.1813 111.216 39.008C110.64 37.8347 110.309 36.2987 110.224 34.4C110.181 33.0773 110.149 31.904 110.128 30.88C110.107 29.8347 110.096 28.8213 110.096 27.84C110.096 26.8587 110.107 25.824 110.128 24.736C110.149 23.648 110.181 22.3893 110.224 20.96C110.373 18.272 111.013 16.288 112.144 15.008C113.275 13.728 115.088 12.992 117.584 12.8V16.608C116.645 16.7787 115.952 17.1733 115.504 17.792C115.077 18.3893 114.843 19.2853 114.8 20.48C114.757 22.08 114.725 23.712 114.704 25.376C114.704 27.04 114.704 28.6827 114.704 30.304C114.725 31.904 114.757 33.4293 114.8 34.88C114.864 36.096 115.109 37.0027 115.536 37.6C115.984 38.176 116.667 38.56 117.584 38.752V42.656C116.539 42.7627 115.76 43.0293 115.248 43.456C114.736 43.8613 114.48 44.384 114.48 45.024C114.48 45.088 114.48 45.152 114.48 45.216C114.48 45.28 114.48 45.344 114.48 45.408C114.48 46.0907 114.704 46.592 115.152 46.912C115.621 47.232 116.432 47.4667 117.584 47.616V51.104C116.453 51.168 115.525 51.424 114.8 51.872C114.096 52.3413 113.712 53.1307 113.648 54.24C113.605 54.4747 113.584 54.7093 113.584 54.944C113.584 55.1787 113.605 55.4133 113.648 55.648C113.712 56.736 114.107 57.4933 114.832 57.92C115.557 58.3467 116.475 58.6027 117.584 58.688V62.208ZM120.496 62.176V58.784C121.861 58.72 122.96 58.4533 123.792 57.984C124.645 57.536 125.136 56.736 125.264 55.584C125.328 55.328 125.36 55.0827 125.36 54.848C125.36 54.6133 125.317 54.3787 125.232 54.144C125.104 52.9493 124.624 52.16 123.792 51.776C122.981 51.392 121.883 51.1573 120.496 51.072V47.776C123.248 47.9253 125.349 48.48 126.8 49.44C128.272 50.3787 129.104 51.9253 129.296 54.08C129.317 54.3147 129.328 54.5813 129.328 54.88C129.349 55.1787 129.339 55.5093 129.296 55.872C129.104 58.112 128.197 59.6907 126.576 60.608C124.955 61.5467 122.928 62.0693 120.496 62.176ZM120.496 42.56V38.752C121.392 38.56 122.053 38.176 122.48 37.6C122.928 37.0027 123.184 36.096 123.248 34.88C123.291 33.4293 123.312 31.904 123.312 30.304C123.333 28.6827 123.333 27.04 123.312 25.376C123.312 23.712 123.28 22.08 123.216 20.48C123.173 19.2853 122.939 18.3893 122.512 17.792C122.085 17.1733 121.413 16.7893 120.496 16.64V12.8C123.76 13.056 125.893 14.304 126.896 16.544H127.696C127.781 15.4987 128.176 14.688 128.88 14.112C129.605 13.5147 130.555 13.216 131.728 13.216V16.96H131.056C130.053 16.96 129.275 17.344 128.72 18.112C128.165 18.88 127.888 20.0533 127.888 21.632V23.264C127.888 24.7147 127.888 26.0053 127.888 27.136C127.909 28.2667 127.92 29.3973 127.92 30.528C127.92 31.6587 127.888 32.9493 127.824 34.4C127.717 37.0667 127.088 39.0507 125.936 40.352C124.805 41.632 122.992 42.368 120.496 42.56ZM135.274 51.616V0.416H140.01V51.616H135.274ZM148.49 51.616V20.32C148.49 18.912 148.223 17.9093 147.69 17.312C147.157 16.7147 146.303 16.416 145.13 16.416C144.298 16.416 143.562 16.5653 142.922 16.864V14.144C143.391 13.696 143.935 13.3547 144.554 13.12C145.194 12.864 145.962 12.736 146.858 12.736C148.97 12.736 150.559 13.3547 151.626 14.592C152.693 15.808 153.226 17.824 153.226 20.64V51.616H148.49ZM157.754 16.96V13.216H160.506V2.336H165.274V44.416C165.274 45.9307 165.498 46.9653 165.946 47.52C166.394 48.0747 167.428 48.352 169.05 48.352C169.647 48.352 170.138 48.3413 170.522 48.32C170.927 48.2987 171.386 48.256 171.898 48.192V51.776C171.471 51.8613 171.002 51.936 170.49 52C169.999 52.064 169.487 52.096 168.954 52.096C165.775 52.096 163.567 51.4667 162.33 50.208C161.114 48.928 160.506 46.8373 160.506 43.936V16.96H157.754ZM167.674 16.96V13.216H171.226V16.96H167.674ZM172.988 29.376V25.12H190.396V29.376H172.988ZM195.774 51.616V13.216H200.51V51.616H195.774ZM208.99 51.616V20.32C208.969 18.912 208.691 17.9093 208.158 17.312C207.646 16.7147 206.803 16.416 205.63 16.416C205.225 16.416 204.841 16.4587 204.478 16.544C204.115 16.6293 203.763 16.7573 203.422 16.928V14.176C203.913 13.7067 204.467 13.3547 205.086 13.12C205.726 12.864 206.483 12.736 207.358 12.736C209.47 12.736 211.049 13.3547 212.094 14.592C213.161 15.808 213.705 17.824 213.726 20.64V51.616H208.99ZM219.95 43.968C219.907 42.3253 219.875 40.5227 219.854 38.56C219.832 36.5973 219.822 34.5813 219.822 32.512C219.822 30.4427 219.832 28.416 219.854 26.432C219.875 24.448 219.907 22.624 219.95 20.96C220.099 18.272 220.739 16.2987 221.87 15.04C223 13.76 224.792 13.024 227.246 12.832V16.64C226.371 16.832 225.731 17.2267 225.326 17.824C224.942 18.4 224.739 19.232 224.718 20.32C224.654 22.5173 224.611 24.5973 224.59 26.56C224.568 28.5227 224.558 30.4533 224.558 32.352C224.558 34.2293 224.568 36.1493 224.59 38.112C224.611 40.0747 224.654 42.1653 224.718 44.384C224.739 45.6 224.942 46.496 225.326 47.072C225.731 47.648 226.371 48.0213 227.246 48.192V52.032C224.728 51.8187 222.904 51.0827 221.774 49.824C220.664 48.5653 220.056 46.6133 219.95 43.968ZM230.126 52.032V48.192C230.958 48.0213 231.555 47.648 231.918 47.072C232.302 46.4747 232.526 45.5787 232.59 44.384C232.632 43.616 232.643 42.72 232.622 41.696C232.622 40.672 232.59 39.5307 232.526 38.272H237.166C237.23 39.1467 237.262 40.1067 237.262 41.152C237.283 42.1973 237.272 43.136 237.23 43.968C237.102 46.6133 236.504 48.576 235.438 49.856C234.371 51.1147 232.6 51.84 230.126 52.032ZM227.086 33.376V29.888H232.59C232.632 28.48 232.654 27.1467 232.654 25.888C232.654 24.6293 232.643 23.52 232.622 22.56C232.622 21.6 232.611 20.8533 232.59 20.32C232.504 19.232 232.27 18.4 231.886 17.824C231.523 17.2267 230.936 16.832 230.126 16.64V12.8C232.558 13.0133 234.318 13.7493 235.406 15.008C236.494 16.2453 237.102 18.176 237.23 20.8C237.251 21.4187 237.272 22.368 237.294 23.648C237.315 24.928 237.315 26.4107 237.294 28.096C237.294 29.76 237.251 31.52 237.166 33.376H227.086ZM260.15 51.616L258.774 36.864L257.398 17.056H256.182L254.742 36.864L253.878 45.44H250.102L250.934 32.576L252.854 13.376H260.758L262.582 32.576L263.67 47.936H268.758L268.31 51.616H260.15ZM245.11 51.616L240.79 13.216H245.59L247.414 32.576L248.502 47.936H253.59L253.238 51.616H245.11ZM265.27 45.44L266.166 32.576L268.022 13.216H272.79L269.142 45.44H265.27ZM276.72 43.968C276.698 43.0933 276.688 42.1547 276.688 41.152C276.688 40.1493 276.72 39.1893 276.784 38.272H281.008C280.965 39.5307 280.944 40.672 280.944 41.696C280.944 42.6987 280.954 43.5947 280.976 44.384C280.997 45.6 281.189 46.496 281.552 47.072C281.936 47.648 282.533 48.0213 283.344 48.192V52.032C280.997 51.8187 279.322 51.0827 278.32 49.824C277.338 48.5653 276.805 46.6133 276.72 43.968ZM286.256 52.032V48.256C287.194 48.064 287.866 47.68 288.272 47.104C288.677 46.528 288.89 45.6213 288.912 44.384C288.933 43.7653 288.944 43.232 288.944 42.784C288.965 42.336 288.976 41.8987 288.976 41.472C288.976 41.0453 288.976 40.5547 288.976 40C288.933 38.4853 288.73 37.3333 288.368 36.544C288.026 35.7547 287.312 35.1787 286.224 34.816L283.024 33.792C281.509 33.28 280.282 32.6613 279.344 31.936C278.426 31.1893 277.754 30.2187 277.328 29.024C276.922 27.8293 276.688 26.2933 276.624 24.416C276.624 23.776 276.624 23.2 276.624 22.688C276.645 22.1547 276.666 21.5787 276.688 20.96C276.709 18.272 277.232 16.288 278.256 15.008C279.28 13.728 281.072 12.992 283.632 12.8V16.608C282.778 16.7787 282.192 17.152 281.872 17.728C281.552 18.2827 281.37 19.1467 281.328 20.32C281.306 21.0027 281.285 21.6107 281.264 22.144C281.242 22.656 281.242 23.296 281.264 24.064C281.306 25.6 281.466 26.8373 281.744 27.776C282.042 28.7147 282.81 29.3973 284.048 29.824L287.024 30.688C289.2 31.3067 290.81 32.2987 291.856 33.664C292.901 35.0293 293.424 37.0773 293.424 39.808C293.424 40.4693 293.413 41.1733 293.392 41.92C293.392 42.6667 293.381 43.3813 293.36 44.064C293.274 46.688 292.698 48.6293 291.632 49.888C290.586 51.1253 288.794 51.84 286.256 52.032ZM288.72 26.464C288.762 25.76 288.784 25.0347 288.784 24.288C288.784 23.5413 288.784 22.8267 288.784 22.144C288.784 21.44 288.773 20.832 288.752 20.32C288.73 19.168 288.549 18.304 288.208 17.728C287.888 17.152 287.333 16.7893 286.544 16.64V12.8C288.912 13.0133 290.576 13.7493 291.536 15.008C292.517 16.2667 293.061 18.1973 293.168 20.8C293.168 21.312 293.168 21.8987 293.168 22.56C293.168 23.2 293.168 23.8613 293.168 24.544C293.168 25.2267 293.146 25.8667 293.104 26.464H288.72Z" fill="#E3A419"/>
<path d="M298.104 51.616V45.6H305.784V51.616H298.104ZM310.503 17.176V13.216H315.687V17.176H310.503ZM311.247 51.616V22.816H314.943V51.616H311.247ZM319.941 51.616V22.816H323.661V51.616H319.941ZM330.237 51.616V28.192C330.221 27.168 330.005 26.432 329.589 25.984C329.189 25.536 328.541 25.312 327.645 25.312C327.341 25.312 327.045 25.344 326.757 25.408C326.485 25.472 326.221 25.568 325.965 25.696V23.512C326.349 23.16 326.781 22.896 327.261 22.72C327.757 22.544 328.341 22.456 329.013 22.456C330.645 22.456 331.869 22.928 332.685 23.872C333.517 24.8 333.941 26.336 333.957 28.48V51.616H330.237Z" fill="#F0E7D5"/>
</svg>
